HIERARCHY
ROOT Root
{
  OFFSET 0.0 0.0 0.0
  CHANNELS 6 Xposition Yposition Zposition Zrotation Yrotation Xrotation
  JOINT Hips
  {
    OFFSET 0.0 100.0 0.0
    CHANNELS 6 Xposition Yposition Zposition Zrotation Yrotation Xrotation
    JOINT Spine1
    {
      OFFSET 5.003913 -0.037094 -0.013727
      CHANNELS 3 Zrotation Yrotation Xrotation
      JOINT Spine2
      {
        OFFSET 7.125363 -1e-06 0.0
        CHANNELS 3 Zrotation Yrotation Xrotation
        JOINT Chest
        {
          OFFSET 7.594027 1e-06 0.0
          CHANNELS 3 Zrotation Yrotation Xrotation
          JOINT Neck1
          {
            OFFSET 26.313086 -0.460272 -0.181672
            CHANNELS 3 Zrotation Yrotation Xrotation
            JOINT Neck2
            {
              OFFSET 8.045911 0.0 0.0
              CHANNELS 3 Zrotation Yrotation Xrotation
              JOINT Head
              {
                OFFSET 6.432774 0.0 0.0
                CHANNELS 3 Zrotation Yrotation Xrotation
                JOINT HeadEnd
                {
                  OFFSET 16.169773 0.06451 0.00362
                  CHANNELS 3 Zrotation Yrotation Xrotation
                }
                JOINT Jaw
                {
                  OFFSET 0.108741 3.12938 0.002639
                  CHANNELS 3 Zrotation Yrotation Xrotation
                }
                JOINT LeftEye
                {
                  OFFSET 4.45173 8.166359 3.206392
                  CHANNELS 3 Zrotation Yrotation Xrotation
                }
                JOINT RightEye
                {
                  OFFSET 4.436895 8.135758 -3.222429
                  CHANNELS 3 Zrotation Yrotation Xrotation
                }
              }
            }
          }
          JOINT LeftShoulder
          {
            OFFSET 23.218927 5.195579 1.621656
            CHANNELS 3 Zrotation Yrotation Xrotation
            JOINT LeftArm
            {
              OFFSET 15.902118 2e-06 -2e-06
              CHANNELS 3 Zrotation Yrotation Xrotation
              JOINT LeftForeArm
              {
                OFFSET 28.739307 0.0 -1e-06
                CHANNELS 3 Zrotation Yrotation Xrotation
                JOINT LeftHand
                {
                  OFFSET 27.093981 -4e-06 0.0
                  CHANNELS 3 Zrotation Yrotation Xrotation
                  JOINT LeftHandThumb1
                  {
                    OFFSET 2.276781 3.380274 0.83384
                    CHANNELS 3 Zrotation Yrotation Xrotation
                    JOINT LeftHandThumb2
                    {
                      OFFSET 4.705309 -1e-06 -1e-06
                      CHANNELS 3 Zrotation Yrotation Xrotation
                      JOINT LeftHandThumb3
                      {
                        OFFSET 2.798515 0.0 3e-06
                        CHANNELS 3 Zrotation Yrotation Xrotation
                        JOINT LeftHandThumbEnd
                        {
                          OFFSET 3.180793 4e-06 -4e-06
                          CHANNELS 3 Zrotation Yrotation Xrotation
                        }
                      }
                    }
                  }
                  JOINT LeftHandIndex1
                  {
                    OFFSET 3.247786 2.352677 0.137192
                    CHANNELS 3 Zrotation Yrotation Xrotation
                    JOINT LeftHandIndex2
                    {
                      OFFSET 6.367095 1e-06 0.0
                      CHANNELS 3 Zrotation Yrotation Xrotation
                      JOINT LeftHandIndex3
                      {
                        OFFSET 3.662364 0.0 0.0
                        CHANNELS 3 Zrotation Yrotation Xrotation
                        JOINT LeftHandIndex4
                        {
                          OFFSET 2.329242 4e-06 -4e-06
                          CHANNELS 3 Zrotation Yrotation Xrotation
                          JOINT LeftHandIndexEnd
                          {
                            OFFSET 2.767823 1e-06 0.0
                            CHANNELS 3 Zrotation Yrotation Xrotation
                          }
                        }
                      }
                    }
                  }
                  JOINT LeftHandMiddle1
                  {
                    OFFSET 3.163612 0.945023 -0.406112
                    CHANNELS 3 Zrotation Yrotation Xrotation
                    JOINT LeftHandMiddle2
                    {
                      OFFSET 6.276789 3e-06 0.0
                      CHANNELS 3 Zrotation Yrotation Xrotation
                      JOINT LeftHandMiddle3
                      {
                        OFFSET 4.35652 -1e-06 4e-06
                        CHANNELS 3 Zrotation Yrotation Xrotation
                        JOINT LeftHandMiddle4
                        {
                          OFFSET 2.996877 0.0 8e-06
                          CHANNELS 3 Zrotation Yrotation Xrotation
                          JOINT LeftHandMiddleEnd
                          {
                            OFFSET 2.323256 3e-06 -4e-06
                            CHANNELS 3 Zrotation Yrotation Xrotation
                          }
                        }
                      }
                    }
                  }
                  JOINT LeftHandRing1
                  {
                    OFFSET 2.882606 -0.309162 0.107445
                    CHANNELS 3 Zrotation Yrotation Xrotation
                    JOINT LeftHandRing2
                    {
                      OFFSET 6.033198 0.0 4e-06
                      CHANNELS 3 Zrotation Yrotation Xrotation
                      JOINT LeftHandRing3
                      {
                        OFFSET 4.350578 3e-06 0.0
                        CHANNELS 3 Zrotation Yrotation Xrotation
                        JOINT LeftHandRing4
                        {
                          OFFSET 2.651321 2e-06 -7e-06
                          CHANNELS 3 Zrotation Yrotation Xrotation
                          JOINT LeftHandRingEnd
                          {
                            OFFSET 1.937663 1e-06 -4e-06
                            CHANNELS 3 Zrotation Yrotation Xrotation
                          }
                        }
                      }
                    }
                  }
                  JOINT LeftHandPinky1
                  {
                    OFFSET 2.865315 -1.525436 0.575687
                    CHANNELS 3 Zrotation Yrotation Xrotation
                    JOINT LeftHandPinky2
                    {
                      OFFSET 5.54936 1e-06 -8e-06
                      CHANNELS 3 Zrotation Yrotation Xrotation
                      JOINT LeftHandPinky3
                      {
                        OFFSET 3.070974 0.0 -4e-06
                        CHANNELS 3 Zrotation Yrotation Xrotation
                        JOINT LeftHandPinky4
                        {
                          OFFSET 1.549672 1e-06 0.0
                          CHANNELS 3 Zrotation Yrotation Xrotation
                          JOINT LeftHandPinkyEnd
                          {
                            OFFSET 1.952123 0.0 0.0
                            CHANNELS 3 Zrotation Yrotation Xrotation
                          }
                        }
                      }
                    }
                  }
                }
              }
            }
          }
          JOINT RightShoulder
          {
            OFFSET 23.161716 5.296122 -1.380114
            CHANNELS 3 Zrotation Yrotation Xrotation
            JOINT RightArm
            {
              OFFSET -16.027195 -2e-06 1.1e-05
              CHANNELS 3 Zrotation Yrotation Xrotation
              JOINT RightForeArm
              {
                OFFSET -28.736639 4e-06 2e-06
                CHANNELS 3 Zrotation Yrotation Xrotation
                JOINT RightHand
                {
                  OFFSET -27.133619 6e-06 0.0
                  CHANNELS 3 Zrotation Yrotation Xrotation
                  JOINT RightHandThumb1
                  {
                    OFFSET -2.274328 -3.351035 -0.83067
                    CHANNELS 3 Zrotation Yrotation Xrotation
                    JOINT RightHandThumb2
                    {
                      OFFSET -4.703594 -3e-06 2e-06
                      CHANNELS 3 Zrotation Yrotation Xrotation
                      JOINT RightHandThumb3
                      {
                        OFFSET -2.794935 -4e-06 -3e-06
                        CHANNELS 3 Zrotation Yrotation Xrotation
                        JOINT RightHandThumbEnd
                        {
                          OFFSET -3.183852 4e-06 1e-06
                          CHANNELS 3 Zrotation Yrotation Xrotation
                        }
                      }
                    }
                  }
                  JOINT RightHandIndex1
                  {
                    OFFSET -3.253496 -2.33755 -0.127667
                    CHANNELS 3 Zrotation Yrotation Xrotation
                    JOINT RightHandIndex2
                    {
                      OFFSET -6.344434 0.0 0.0
                      CHANNELS 3 Zrotation Yrotation Xrotation
                      JOINT RightHandIndex3
                      {
                        OFFSET -3.654871 0.0 -8e-06
                        CHANNELS 3 Zrotation Yrotation Xrotation
                        JOINT RightHandIndex4
                        {
                          OFFSET -2.327586 -1e-06 0.0
                          CHANNELS 3 Zrotation Yrotation Xrotation
                          JOINT RightHandIndexEnd
                          {
                            OFFSET -2.770001 3e-06 8e-06
                            CHANNELS 3 Zrotation Yrotation Xrotation
                          }
                        }
                      }
                    }
                  }
                  JOINT RightHandMiddle1
                  {
                    OFFSET -3.168223 -0.944764 0.411762
                    CHANNELS 3 Zrotation Yrotation Xrotation
                    JOINT RightHandMiddle2
                    {
                      OFFSET -6.266691 -1e-06 -4e-06
                      CHANNELS 3 Zrotation Yrotation Xrotation
                      JOINT RightHandMiddle3
                      {
                        OFFSET -4.348901 0.0 0.0
                        CHANNELS 3 Zrotation Yrotation Xrotation
                        JOINT RightHandMiddle4
                        {
                          OFFSET -3.00024 2e-06 -4e-06
                          CHANNELS 3 Zrotation Yrotation Xrotation
                          JOINT RightHandMiddleEnd
                          {
                            OFFSET -2.321477 -4e-06 -4e-06
                            CHANNELS 3 Zrotation Yrotation Xrotation
                          }
                        }
                      }
                    }
                  }
                  JOINT RightHandRing1
                  {
                    OFFSET -2.885654 0.293261 -0.119232
                    CHANNELS 3 Zrotation Yrotation Xrotation
                    JOINT RightHandRing2
                    {
                      OFFSET -6.032835 -1e-06 -4e-06
                      CHANNELS 3 Zrotation Yrotation Xrotation
                      JOINT RightHandRing3
                      {
                        OFFSET -4.33881 0.0 -4e-06
                        CHANNELS 3 Zrotation Yrotation Xrotation
                        JOINT RightHandRing4
                        {
                          OFFSET -2.654903 -4e-06 -4e-06
                          CHANNELS 3 Zrotation Yrotation Xrotation
                          JOINT RightHandRingEnd
                          {
                            OFFSET -1.935122 0.0 4e-06
                            CHANNELS 3 Zrotation Yrotation Xrotation
                          }
                        }
                      }
                    }
                  }
                  JOINT RightHandPinky1
                  {
                    OFFSET -2.866241 1.503904 -0.60527
                    CHANNELS 3 Zrotation Yrotation Xrotation
                    JOINT RightHandPinky2
                    {
                      OFFSET -5.553177 -2e-06 0.0
                      CHANNELS 3 Zrotation Yrotation Xrotation
                      JOINT RightHandPinky3
                      {
                        OFFSET -3.062664 -1e-06 -4e-06
                        CHANNELS 3 Zrotation Yrotation Xrotation
                        JOINT RightHandPinky4
                        {
                          OFFSET -1.546529 2e-06 4e-06
                          CHANNELS 3 Zrotation Yrotation Xrotation
                          JOINT RightHandPinkyEnd
                          {
                            OFFSET -1.952341 0.0 -4e-06
                            CHANNELS 3 Zrotation Yrotation Xrotation
                          }
                        }
                      }
                    }
                  }
                }
              }
            }
          }
        }
      }
    }
    JOINT LeftLeg
    {
      OFFSET -8.443107 2.567604 10.043214
      CHANNELS 3 Zrotation Yrotation Xrotation
      JOINT LeftShin
      {
        OFFSET 43.229198 1e-06 -1e-06
        CHANNELS 3 Zrotation Yrotation Xrotation
        JOINT LeftFoot
        {
          OFFSET 42.298611 1e-06 1e-06
          CHANNELS 3 Zrotation Yrotation Xrotation
          JOINT LeftToeBase
          {
            OFFSET 14.165858 1e-06 0.0
            CHANNELS 3 Zrotation Yrotation Xrotation
            JOINT LeftToeEnd
            {
              OFFSET 6.7141 -0.234461 0.0
              CHANNELS 3 Zrotation Yrotation Xrotation
            }
          }
        }
      }
    }
    JOINT RightLeg
    {
      OFFSET -8.303923 2.592729 -10.047278
      CHANNELS 3 Zrotation Yrotation Xrotation
      JOINT RightShin
      {
        OFFSET -43.369682 0.0 1e-06
        CHANNELS 3 Zrotation Yrotation Xrotation
        JOINT RightFoot
        {
          OFFSET -42.260784 4e-06 2e-06
          CHANNELS 3 Zrotation Yrotation Xrotation
          JOINT RightToeBase
          {
            OFFSET -14.222245 -2e-06 -1e-06
            CHANNELS 3 Zrotation Yrotation Xrotation
            JOINT RightToeEnd
            {
              OFFSET -6.660062 0.232574 -2e-06
              CHANNELS 3 Zrotation Yrotation Xrotation
            }
          }
        }
      }
    }
  }
}
MOTION
Frames: 4
Frame Time: 0.03333333333333333
0.0 0.0 0.0 0.0 -0.0 0.0 -0.618033 97.84951 1.707964 96.083237 1.093233 90.508591 -2.224318 0.533979 0.111774 -11.46857 0.119825 0.530048 14.445546 -1.660354 -2.308846 17.741194 -8.71626 3.15935 -2.770157 -0.709589 0.203128 -27.924257 -2.260361 1.554242 6e-06 -0.0 -0.0 -0.008391 0.027771 -0.076165 -0.193641 0.083295 -0.103552 -0.217754 -0.040172 -0.033221 -124.76178 -65.14978 141.300598 9.362948 -25.396919 16.665684 53.033798 -0.29782 -0.263516 2.72974 -1.433587 -7.877008 17.636627 -26.322733 52.411205 -19.466656 -14.395602 29.410393 -0.0 -8.774822 -1e-06 15.750713 -18.276724 6.24905 -0.609776 -1.795653 -3.889326 -4.807092 -11.046809 -2.937851 0.0 -20.976015 2e-06 -5.019975 -25.033556 -4.03188 6e-06 -1e-06 1e-06 -10.634535 -5.686969 -3.565587 10.573272 -17.922947 -3.1139 -1e-06 -13.821209 3e-06 -0.501781 -31.181505 -4.027015 -10.784977 -59.539162 6.912439 -13.982712 -7.150196 -2.875041 13.772731 -8.401491 -3.218241 0.347727 -34.211555 0.771659 -0.963032 -17.73337 2.62102 0.0 -0.0 2e-06 -17.346422 -20.095217 -4.201779 21.757565 -1.638373 3.866428 -1e-06 -6.338823 2e-06 -1.697594 -22.59174 -6.194004 -2e-06 -4e-06 -2e-06 59.152534 -73.654877 136.146866 11.70946 -30.205502 10.373535 54.344906 -0.324927 0.634339 -5.843691 -5.740004 16.938437 22.18211 -20.375896 49.933319 -16.701811 -16.74353 28.476522 -1e-06 -12.690601 -0.0 16.406534 -17.922913 2.567053 -0.10592 -1.513856 -4.275881 -5.03904 -5.612874 -2.953556 2e-06 -11.020523 -1e-06 -6.111298 -15.895334 -3.840472 -0.0 -0.0 1e-06 -10.283368 -5.680289 -4.341836 11.028292 -11.302406 -2.372634 -1.384269 -14.238581 -6.320121 -0.62544 -26.924187 -3.827601 -3.819692 -50.581741 -3.57059 -13.708522 -7.363478 -3.720939 18.141146 -14.052737 -3.242674 4e-06 -18.78727 -2e-06 -0.429714 -8.456044 2.555507 -1e-06 -0.0 0.0 -15.923538 -20.094484 -5.47358 30.41921 -7.190823 1.735928 1e-06 -8.162927 -1e-06 -1.861904 -22.861469 -6.167942 -0.0 -3e-06 -1e-06 169.088684 1.336949 -3.710147 23.605175 -0.052744 0.344468 -80.261444 -1.87369 -8.624345 -8.705001 1.595886 2.010472 -0.999999 0.0 -0.0 13.711917 -20.770962 -6.070204 22.684261 -0.512118 0.855748 -77.267433 5.326369 -10.633966 -21.278816 0.926977 1.482942 -1.000001 0.0 -0.0 
0.0 0.0 0.0 0.0 -0.0 0.0 1.043662 98.361412 3.174253 96.531754 1.898086 89.741127 -2.000903 0.239627 0.013746 -11.372035 0.153842 0.236477 14.426021 -1.297984 -2.52413 18.462057 -8.541558 3.044949 -2.758376 -0.689902 0.544939 -27.41456 -2.750703 2.067571 7e-06 0.0 0.0 -0.019297 0.03502 -0.032638 -0.16918 0.077249 -0.050195 -0.203579 -0.018525 -0.003485 -123.184662 -65.597458 139.830063 8.948968 -26.218506 16.762852 53.36927 -0.328945 -0.034906 3.280472 -1.64031 -7.033211 17.636635 -26.322737 52.411201 -19.466665 -14.395597 29.410393 -1e-06 -8.774823 -1e-06 15.764482 -18.215635 6.141233 -0.609775 -1.795657 -3.889326 -4.807087 -11.046813 -2.937852 6e-06 -20.976021 1e-06 -5.019969 -25.033566 -4.03188 6e-06 1e-06 -0.0 -10.634535 -5.686975 -3.565587 10.573277 -17.922955 -3.113901 3e-06 -13.821213 -0.0 -0.501774 -31.181511 -4.027016 -10.85826 -59.460903 6.994415 -13.982718 -7.150199 -2.875043 13.772734 -8.401497 -3.218239 0.347736 -34.211559 0.771651 -0.963027 -17.733374 2.621021 -2e-06 2e-06 -1e-06 -17.346422 -20.095222 -4.201783 21.757565 -1.638378 3.866428 0.0 -6.338825 -1e-06 -1.697588 -22.591749 -6.194006 -1e-06 -4e-06 -3e-06 59.490921 -73.095406 136.046082 10.155184 -29.701666 11.557295 54.377857 -0.318506 0.781273 -6.566787 -5.666065 17.383032 22.182117 -20.375898 49.933327 -16.701815 -16.743526 28.476534 -3e-06 -12.6906 2e-06 16.527775 -17.810177 2.450164 -0.105919 -1.513855 -4.27588 -5.039041 -5.612872 -2.953553 5e-06 -11.02052 -3e-06 -6.111296 -15.89533 -3.840472 -0.0 -0.0 -1e-06 -10.283371 -5.680288 -4.34184 11.028295 -11.302404 -2.372634 -1.384268 -14.238582 -6.320123 -0.625435 -26.924192 -3.827604 -3.811637 -50.611168 -3.500717 -13.708525 -7.363472 -3.720942 18.14115 -14.052739 -3.242675 7e-06 -18.78727 -0.0 -0.429712 -8.456043 2.555505 -1e-06 -0.0 -0.0 -15.923534 -20.094482 -5.473588 30.41921 -7.190826 1.735926 3e-06 -8.162926 1e-06 -1.861901 -22.861467 -6.167946 2e-06 -5e-06 0.0 172.91037 3.210677 -3.128815 19.759344 -0.050045 0.42767 -79.612228 -3.179814 -7.602157 -8.264387 1.676206 2.049969 -0.999998 -0.0 -0.0 10.347414 -22.918816 -4.835412 29.949759 -0.678932 0.996651 -72.985512 7.069974 -10.299106 -24.900164 1.01053 1.460873 -1.000002 0.0 0.0 
0.0 0.0 0.0 0.0 -0.0 0.0 2.789186 98.517586 4.42323 96.839104 2.721667 88.700005 -1.635389 -0.037804 0.00379 -11.174452 0.095491 -0.179541 14.558202 -0.820071 -2.68009 18.813663 -8.219621 3.053248 -2.768016 -0.668245 1.020933 -27.091724 -3.146544 2.79206 7e-06 0.0 0.0 -0.011972 0.035031 -0.030226 -0.143405 0.052024 -0.039181 -0.16831 0.005591 -0.013657 -122.500725 -65.967194 139.149139 7.970668 -26.226377 17.310497 54.229572 -0.258981 0.144184 3.909534 -2.150531 -6.258078 17.636625 -26.322731 52.41119 -19.46665 -14.395602 29.410385 -0.0 -8.774821 -1e-06 15.840137 -18.23439 6.050086 -0.609776 -1.795653 -3.889328 -4.807089 -11.046809 -2.937849 2e-06 -20.976011 -1e-06 -5.019972 -25.033546 -4.03188 7e-06 -2e-06 0.0 -10.634536 -5.68697 -3.565586 10.573273 -17.922945 -3.113899 1e-06 -13.821205 -0.0 -0.50178 -31.181498 -4.027014 -11.041 -59.5182 7.024548 -13.982714 -7.150198 -2.875044 13.772726 -8.401488 -3.218241 0.34773 -34.211544 0.771656 -0.963031 -17.733362 2.621022 -3e-06 1e-06 -0.0 -17.346418 -20.095213 -4.201779 21.757557 -1.638374 3.866427 1e-06 -6.338821 -0.0 -1.697591 -22.59174 -6.194004 -1e-06 -4e-06 -2e-06 57.692982 -72.335968 138.075043 8.660566 -28.153259 11.89887 54.811241 -0.516177 0.745213 -7.165704 -5.369391 17.16852 22.182114 -20.375898 49.933327 -16.701809 -16.74353 28.476532 -1e-06 -12.690601 -0.0 16.473576 -17.643705 2.384233 -0.105918 -1.513855 -4.275883 -5.039042 -5.612871 -2.953552 3e-06 -11.020524 -0.0 -6.111301 -15.895334 -3.840467 -0.0 -0.0 -1e-06 -10.283371 -5.680288 -4.341838 11.028294 -11.302403 -2.372633 -1.38427 -14.238579 -6.32012 -0.625442 -26.924191 -3.8276 -3.641481 -50.321835 -3.662621 -13.708526 -7.363477 -3.720938 18.141148 -14.052739 -3.242674 2e-06 -18.78727 1e-06 -0.429712 -8.456044 2.555507 -0.0 -1e-06 -1e-06 -15.923539 -20.094484 -5.473586 30.419214 -7.190825 1.735927 3e-06 -8.162927 0.0 -1.861907 -22.861469 -6.167946 0.0 -3e-06 0.0 175.585571 4.871686 -2.94449 17.903944 -0.04171 0.392568 -79.816483 -4.448969 -6.755376 -7.652636 1.678671 2.079086 -0.999999 -0.0 -0.0 5.37366 -25.180166 -2.982276 38.901432 -0.828063 1.093751 -68.381409 10.223404 -9.497585 -26.351631 1.061435 1.482587 -1.000002 -0.0 -0.0 
0.0 0.0 0.0 0.0 -0.0 0.0 4.296277 98.402824 5.54916 97.119926 3.564405 87.375298 -1.063215 -0.390386 -0.07596 -10.921103 0.000853 -0.48664 14.831985 -0.503373 -2.749284 18.78212 -7.725217 3.097454 -2.801574 -0.670339 1.586186 -27.400335 -3.308398 3.630529 6e-06 -0.0 0.0 -0.002141 0.035728 -0.023095 -0.136597 0.045608 -0.026569 -0.154062 0.012173 -0.013227 -121.777603 -66.474876 138.532776 7.096255 -25.802572 17.690323 54.768822 -0.286103 0.188283 4.54092 -2.3193 -5.973096 17.636633 -26.322737 52.411209 -19.46666 -14.395597 29.410395 -1e-06 -8.774821 -2e-06 15.831026 -18.255686 6.026355 -0.609777 -1.795653 -3.889328 -4.807088 -11.046811 -2.937855 4e-06 -20.976019 1e-06 -5.019969 -25.03356 -4.03188 6e-06 -1e-06 -2e-06 -10.634535 -5.68697 -3.565588 10.573272 -17.922955 -3.1139 2e-06 -13.821211 -0.0 -0.501779 -31.181507 -4.027015 -11.205624 -59.544724 7.084421 -13.982714 -7.150198 -2.875043 13.772728 -8.401493 -3.218243 0.347734 -34.211555 0.771656 -0.963029 -17.73337 2.621022 -4e-06 2e-06 -1e-06 -17.346416 -20.095221 -4.201785 21.757557 -1.638376 3.866427 2e-06 -6.338823 1e-06 -1.697589 -22.591747 -6.194007 1e-06 -5e-06 -1e-06 55.721348 -71.600105 140.248169 7.900445 -26.80534 11.628141 55.008305 -0.624182 0.593086 -7.615204 -4.755858 16.930096 22.182114 -20.375904 49.933323 -16.701813 -16.74353 28.47653 -2e-06 -12.690601 -3e-06 16.448702 -17.491896 2.337928 -0.10592 -1.513854 -4.27588 -5.039041 -5.612871 -2.953557 5e-06 -11.020523 -1e-06 -6.111298 -15.89533 -3.840468 0.0 0.0 1e-06 -10.283372 -5.680288 -4.341839 11.028296 -11.302406 -2.37263 -1.384268 -14.238583 -6.320122 -0.625438 -26.924194 -3.827598 -3.587213 -50.063755 -3.76907 -13.708524 -7.363476 -3.720939 18.141148 -14.052742 -3.242674 6e-06 -18.78727 -0.0 -0.429713 -8.456045 2.555506 -1e-06 -1e-06 1e-06 -15.923536 -20.094484 -5.473585 30.41921 -7.190827 1.735924 3e-06 -8.162927 0.0 -1.861901 -22.861469 -6.167939 -0.0 -3e-06 -3e-06 177.335007 6.264743 -3.562263 17.711388 -0.064149 0.304362 -80.785576 -5.441679 -6.252789 -7.200982 1.68277 2.087868 -0.999998 -0.0 -0.0 -0.429633 -27.201012 -0.979302 47.892681 -0.949932 1.113861 -64.128105 12.520932 -7.907174 -23.586967 1.014218 1.547916 -1.000004 0.0 -0.0 
